<mxfile host="app.diagrams.net" modified="2024-04-13T08:40:42.692Z" agent="Mozilla/5.0 (Windows NT 10.0; Win64; x64) AppleWebKit/537.36 (KHTML, like Gecko) Chrome/123.0.0.0 Safari/537.36" etag="kVfM89_JHspgjqfq9R5Q" version="24.2.5" type="device">
  <diagram name="Страница — 1" id="DQ8imi5eh9gdpLCtXENQ">
    <mxGraphModel dx="819" dy="446" grid="0" gridSize="10" guides="1" tooltips="1" connect="1" arrows="1" fold="1" page="1" pageScale="1" pageWidth="827" pageHeight="1169" math="0" shadow="0">
      <root>
        <mxCell id="0" />
        <mxCell id="1" parent="0" />
        <mxCell id="uXNf4TVWvwjsxXdPjGZj-1" value="&lt;b&gt;&lt;font face=&quot;Verdana&quot;&gt;ios_base&lt;/font&gt;&lt;/b&gt;" style="rounded=0;whiteSpace=wrap;html=1;" parent="1" vertex="1">
          <mxGeometry x="360" y="200" width="120" height="40" as="geometry" />
        </mxCell>
        <mxCell id="uXNf4TVWvwjsxXdPjGZj-2" value="&lt;b&gt;&lt;font face=&quot;Verdana&quot;&gt;basic_ios&lt;/font&gt;&lt;/b&gt;&lt;div&gt;&lt;span style=&quot;font-size: 10px;&quot;&gt;&lt;font style=&quot;&quot; face=&quot;Verdana&quot;&gt;ios / wios&lt;/font&gt;&lt;/span&gt;&lt;/div&gt;" style="rounded=0;whiteSpace=wrap;html=1;" parent="1" vertex="1">
          <mxGeometry x="360" y="280" width="120" height="40" as="geometry" />
        </mxCell>
        <mxCell id="uXNf4TVWvwjsxXdPjGZj-3" value="&lt;b&gt;&lt;font face=&quot;Verdana&quot;&gt;basic_istream&lt;/font&gt;&lt;/b&gt;&lt;div&gt;&lt;span style=&quot;font-family: Verdana; font-size: 10px; background-color: initial;&quot;&gt;istream / wistream&lt;/span&gt;&lt;/div&gt;" style="rounded=0;whiteSpace=wrap;html=1;" parent="1" vertex="1">
          <mxGeometry x="200" y="440" width="120" height="40" as="geometry" />
        </mxCell>
        <mxCell id="uXNf4TVWvwjsxXdPjGZj-4" value="&lt;b&gt;&lt;font face=&quot;Verdana&quot;&gt;basic_ostream&lt;/font&gt;&lt;/b&gt;&lt;div&gt;&lt;span style=&quot;background-color: initial; font-size: 10px;&quot;&gt;&lt;font face=&quot;Verdana&quot;&gt;ostream / wo&lt;/font&gt;&lt;/span&gt;&lt;span style=&quot;background-color: initial; font-family: Verdana; font-size: 10px;&quot;&gt;stream&lt;/span&gt;&lt;/div&gt;" style="rounded=0;whiteSpace=wrap;html=1;" parent="1" vertex="1">
          <mxGeometry x="520" y="440" width="120" height="40" as="geometry" />
        </mxCell>
        <mxCell id="uXNf4TVWvwjsxXdPjGZj-5" value="&lt;b&gt;&lt;font face=&quot;Verdana&quot;&gt;basic_iostream&lt;/font&gt;&lt;/b&gt;&lt;div&gt;&lt;span style=&quot;background-color: initial; font-size: 10px;&quot;&gt;&lt;font face=&quot;Verdana&quot;&gt;iostream / wio&lt;/font&gt;&lt;/span&gt;&lt;span style=&quot;background-color: initial; font-family: Verdana; font-size: 10px;&quot;&gt;stream&lt;/span&gt;&lt;/div&gt;" style="rounded=0;whiteSpace=wrap;html=1;" parent="1" vertex="1">
          <mxGeometry x="360" y="440" width="120" height="40" as="geometry" />
        </mxCell>
        <mxCell id="uXNf4TVWvwjsxXdPjGZj-6" value="" style="endArrow=blockThin;html=1;rounded=0;exitX=0.5;exitY=0;exitDx=0;exitDy=0;entryX=0;entryY=0.5;entryDx=0;entryDy=0;endFill=1;" parent="1" source="uXNf4TVWvwjsxXdPjGZj-3" target="uXNf4TVWvwjsxXdPjGZj-2" edge="1">
          <mxGeometry width="50" height="50" relative="1" as="geometry">
            <mxPoint x="250" y="310" as="sourcePoint" />
            <mxPoint x="300" y="260" as="targetPoint" />
            <Array as="points">
              <mxPoint x="260" y="300" />
            </Array>
          </mxGeometry>
        </mxCell>
        <mxCell id="uXNf4TVWvwjsxXdPjGZj-7" value="" style="endArrow=blockThin;html=1;rounded=0;entryX=1;entryY=0.5;entryDx=0;entryDy=0;endFill=1;exitX=0.5;exitY=0;exitDx=0;exitDy=0;" parent="1" source="uXNf4TVWvwjsxXdPjGZj-4" target="uXNf4TVWvwjsxXdPjGZj-2" edge="1">
          <mxGeometry width="50" height="50" relative="1" as="geometry">
            <mxPoint x="570" y="330" as="sourcePoint" />
            <mxPoint x="390" y="310" as="targetPoint" />
            <Array as="points">
              <mxPoint x="580" y="300" />
            </Array>
          </mxGeometry>
        </mxCell>
        <mxCell id="uXNf4TVWvwjsxXdPjGZj-9" value="" style="endArrow=blockThin;html=1;rounded=0;exitX=0.5;exitY=0;exitDx=0;exitDy=0;entryX=0.5;entryY=1;entryDx=0;entryDy=0;endFill=1;" parent="1" source="uXNf4TVWvwjsxXdPjGZj-2" target="uXNf4TVWvwjsxXdPjGZj-1" edge="1">
          <mxGeometry width="50" height="50" relative="1" as="geometry">
            <mxPoint x="490" y="270" as="sourcePoint" />
            <mxPoint x="540" y="220" as="targetPoint" />
          </mxGeometry>
        </mxCell>
        <mxCell id="uXNf4TVWvwjsxXdPjGZj-11" value="&lt;font face=&quot;Verdana&quot;&gt;virtual&lt;/font&gt;" style="text;html=1;align=center;verticalAlign=middle;whiteSpace=wrap;rounded=0;" parent="1" vertex="1">
          <mxGeometry x="270" y="310" width="60" height="20" as="geometry" />
        </mxCell>
        <mxCell id="uXNf4TVWvwjsxXdPjGZj-12" value="&lt;font face=&quot;Verdana&quot;&gt;virtual&lt;/font&gt;" style="text;html=1;align=center;verticalAlign=middle;whiteSpace=wrap;rounded=0;" parent="1" vertex="1">
          <mxGeometry x="510" y="310" width="60" height="20" as="geometry" />
        </mxCell>
        <mxCell id="uXNf4TVWvwjsxXdPjGZj-14" value="&lt;b&gt;&lt;font face=&quot;Verdana&quot;&gt;basic_oxstream&lt;/font&gt;&lt;/b&gt;&lt;div&gt;&lt;span style=&quot;background-color: initial; font-size: 10px;&quot;&gt;&lt;font face=&quot;Verdana&quot;&gt;oxstream / wox&lt;/font&gt;&lt;/span&gt;&lt;span style=&quot;background-color: initial; font-family: Verdana; font-size: 10px;&quot;&gt;stream&lt;/span&gt;&lt;/div&gt;" style="rounded=0;whiteSpace=wrap;html=1;" parent="1" vertex="1">
          <mxGeometry x="520" y="520" width="120" height="40" as="geometry" />
        </mxCell>
        <mxCell id="uXNf4TVWvwjsxXdPjGZj-15" value="&lt;b&gt;&lt;font face=&quot;Verdana&quot;&gt;basic_ixstream&lt;/font&gt;&lt;/b&gt;&lt;div&gt;&lt;span style=&quot;font-family: Verdana; font-size: 10px; background-color: initial;&quot;&gt;ixstream / wixstream&lt;/span&gt;&lt;/div&gt;" style="rounded=0;whiteSpace=wrap;html=1;" parent="1" vertex="1">
          <mxGeometry x="200" y="520" width="120" height="40" as="geometry" />
        </mxCell>
        <mxCell id="uXNf4TVWvwjsxXdPjGZj-16" value="&lt;b&gt;&lt;font face=&quot;Verdana&quot;&gt;basic_xstream&lt;/font&gt;&lt;/b&gt;&lt;div&gt;&lt;span style=&quot;background-color: initial; font-size: 10px;&quot;&gt;&lt;font face=&quot;Verdana&quot;&gt;xstream / wx&lt;/font&gt;&lt;/span&gt;&lt;span style=&quot;background-color: initial; font-family: Verdana; font-size: 10px;&quot;&gt;stream&lt;/span&gt;&lt;/div&gt;" style="rounded=0;whiteSpace=wrap;html=1;" parent="1" vertex="1">
          <mxGeometry x="360" y="520" width="120" height="40" as="geometry" />
        </mxCell>
        <mxCell id="uXNf4TVWvwjsxXdPjGZj-17" value="" style="endArrow=blockThin;html=1;rounded=0;exitX=0.5;exitY=0;exitDx=0;exitDy=0;entryX=0.5;entryY=1;entryDx=0;entryDy=0;endFill=1;" parent="1" edge="1">
          <mxGeometry width="50" height="50" relative="1" as="geometry">
            <mxPoint x="259.71000000000004" y="520" as="sourcePoint" />
            <mxPoint x="259.71000000000004" y="480" as="targetPoint" />
          </mxGeometry>
        </mxCell>
        <mxCell id="uXNf4TVWvwjsxXdPjGZj-18" value="" style="endArrow=blockThin;html=1;rounded=0;exitX=0.5;exitY=0;exitDx=0;exitDy=0;entryX=0.5;entryY=1;entryDx=0;entryDy=0;endFill=1;" parent="1" edge="1">
          <mxGeometry width="50" height="50" relative="1" as="geometry">
            <mxPoint x="419.71" y="520" as="sourcePoint" />
            <mxPoint x="419.71" y="480" as="targetPoint" />
          </mxGeometry>
        </mxCell>
        <mxCell id="uXNf4TVWvwjsxXdPjGZj-19" value="" style="endArrow=blockThin;html=1;rounded=0;exitX=0.5;exitY=0;exitDx=0;exitDy=0;entryX=0.5;entryY=1;entryDx=0;entryDy=0;endFill=1;" parent="1" edge="1">
          <mxGeometry width="50" height="50" relative="1" as="geometry">
            <mxPoint x="579.71" y="520" as="sourcePoint" />
            <mxPoint x="579.71" y="480" as="targetPoint" />
          </mxGeometry>
        </mxCell>
        <mxCell id="uXNf4TVWvwjsxXdPjGZj-22" value="&lt;font face=&quot;Verdana&quot;&gt;states and flags&lt;/font&gt;" style="text;html=1;align=center;verticalAlign=middle;whiteSpace=wrap;rounded=0;" parent="1" vertex="1">
          <mxGeometry x="360" y="170" width="120" height="30" as="geometry" />
        </mxCell>
        <mxCell id="uXNf4TVWvwjsxXdPjGZj-23" value="" style="endArrow=blockThin;html=1;rounded=0;exitX=1;exitY=0.5;exitDx=0;exitDy=0;entryX=0;entryY=0.5;entryDx=0;entryDy=0;endFill=1;" parent="1" source="uXNf4TVWvwjsxXdPjGZj-5" target="uXNf4TVWvwjsxXdPjGZj-4" edge="1">
          <mxGeometry width="50" height="50" relative="1" as="geometry">
            <mxPoint x="589.71" y="530" as="sourcePoint" />
            <mxPoint x="589.71" y="490" as="targetPoint" />
          </mxGeometry>
        </mxCell>
        <mxCell id="uXNf4TVWvwjsxXdPjGZj-24" value="" style="endArrow=blockThin;html=1;rounded=0;exitX=0;exitY=0.5;exitDx=0;exitDy=0;entryX=1;entryY=0.5;entryDx=0;entryDy=0;endFill=1;" parent="1" source="uXNf4TVWvwjsxXdPjGZj-5" target="uXNf4TVWvwjsxXdPjGZj-3" edge="1">
          <mxGeometry width="50" height="50" relative="1" as="geometry">
            <mxPoint x="429.71" y="530" as="sourcePoint" />
            <mxPoint x="429.71" y="490" as="targetPoint" />
          </mxGeometry>
        </mxCell>
        <mxCell id="5mokgpeEaxBPW0fvR2Iq-8" value="" style="endArrow=none;html=1;rounded=0;entryX=0.5;entryY=1;entryDx=0;entryDy=0;exitX=0.5;exitY=0;exitDx=0;exitDy=0;" edge="1" parent="1" target="uXNf4TVWvwjsxXdPjGZj-2">
          <mxGeometry width="50" height="50" relative="1" as="geometry">
            <mxPoint x="420" y="360" as="sourcePoint" />
            <mxPoint x="560" y="370" as="targetPoint" />
          </mxGeometry>
        </mxCell>
        <mxCell id="5mokgpeEaxBPW0fvR2Iq-9" value="&lt;font face=&quot;Verdana&quot;&gt;x means f or string&lt;/font&gt;" style="text;html=1;align=center;verticalAlign=middle;whiteSpace=wrap;rounded=0;" vertex="1" parent="1">
          <mxGeometry x="200" y="560" width="120" height="30" as="geometry" />
        </mxCell>
        <mxCell id="5mokgpeEaxBPW0fvR2Iq-10" value="&lt;font face=&quot;Verdana&quot;&gt;x means f or string&lt;/font&gt;" style="text;html=1;align=center;verticalAlign=middle;whiteSpace=wrap;rounded=0;" vertex="1" parent="1">
          <mxGeometry x="360" y="560" width="120" height="30" as="geometry" />
        </mxCell>
        <mxCell id="5mokgpeEaxBPW0fvR2Iq-11" value="&lt;font face=&quot;Verdana&quot;&gt;x means f or string&lt;/font&gt;" style="text;html=1;align=center;verticalAlign=middle;whiteSpace=wrap;rounded=0;" vertex="1" parent="1">
          <mxGeometry x="520" y="560" width="120" height="30" as="geometry" />
        </mxCell>
        <mxCell id="5mokgpeEaxBPW0fvR2Iq-12" value="&lt;b&gt;&lt;font style=&quot;font-size: 11px;&quot; face=&quot;Verdana&quot;&gt;basic_streambuf&lt;/font&gt;&lt;/b&gt;&lt;div&gt;&lt;font style=&quot;font-size: 9px;&quot; face=&quot;Verdana&quot;&gt;streambuf / wstreambuf&lt;/font&gt;&lt;/div&gt;" style="rounded=0;whiteSpace=wrap;html=1;" vertex="1" parent="1">
          <mxGeometry x="360" y="360" width="120" height="40" as="geometry" />
        </mxCell>
      </root>
    </mxGraphModel>
  </diagram>
</mxfile>
